{"title":"Rango [2011] Extended 720p BRRip H264 AC3 - CODY","uid":7109562,"size":1805721499,"categoryP":"video","categoryS":"hd___movies","magnet":"?xt=urn:btih:dd4fa6059c67c83a5f036c7e693d112ef542f676&amp;dn=Rango+%5B2011%5D+Extended+720p+BRRip+H264+AC3+-+CODY&amp;tr=udp%3A%2F%2Ftracker.openbittorrent.com%3A80&amp;tr=udp%3A%2F%2Fopen.demonii.com%3A1337&amp;tr=udp%3A%2F%2Ftracker.coppersurfer.tk%3A6969&amp;tr=udp%3A%2F%2Fexodus.desync.com%3A6969","seeders":1,"leechers":0,"uploader":"CODYBOSS1969","files":28,"time":1331991512,"description":"General\nComplete name                            : Rango [2011] Extended 720p BRRip H264 AC3 - CODY.mp4\nFormat                                   : MPEG-4\nFormat profile                           : Base Media\nCodec ID                                 : isom\nFile size                                : 1.68 GiB\nDuration                                 : 1h 51mn\nOverall bit rate mode                    : Variable\nOverall bit rate                         : 2 150 Kbps\nEncoded date                             : UTC 2012-03-16 10:02:37\n\nVideo\nID                                       : 1\nFormat                                   : AVC\nFormat/Info                              : Advanced Video Codec\nFormat profile                           : &lt;a class=&quot;__cf_email__&quot; href=&quot;/cdn-cgi/l/email-protection&quot; data-cfemail=&quot;3971505e5179750d1708&quot;&gt;[email&amp;#160;protected]&lt;/a&gt;&lt;script cf-hash='f9e31' type=&quot;text/javascript&quot;&gt;\n/* &lt;![CDATA[ */!function(){try{var t=&quot;currentScript&quot;in document?document.currentScript:function(){for(var t=document.getElementsByTagName(&quot;script&quot;),e=t.length;e--;)if(t[e].getAttribute(&quot;cf-hash&quot;))return t[e]}();if(t&amp;&amp;t.previousSibling){var e,r,n,i,c=t.previousSibling,a=c.getAttribute(&quot;data-cfemail&quot;);if(a){for(e=&quot;&quot;,r=parseInt(a.substr(0,2),16),n=2;a.length-n;n+=2)i=parseInt(a.substr(n,2),16)^r,e+=String.fromCharCode(i);e=document.createTextNode(e),c.parentNode.replaceChild(e,c)}}}catch(u){}}();/* ]]&gt; */&lt;/script&gt;\nFormat settings, CABAC                   : Yes\nFormat settings, ReFrames                : 4 frames\nCodec ID                                 : avc1\nCodec ID/Info                            : Advanced Video Coding\nDuration                                 : 1h 51mn\nBit rate mode                            : Variable\nBit rate                                 : 1 700 Kbps\nMaximum bit rate                         : 20.0 Mbps\nWidth                                    : 1 280 pixels\nHeight                                   : 536 pixels\nDisplay aspect ratio                     : 2.40:1\nFrame rate mode                          : Constant\nFrame rate                               : 23.976 fps\nColor space                              : YUV\nChroma subsampling                       : 4:2:0\nBit depth                                : 8 bits\nScan type                                : Progressive\nBits/(Pixel*Frame)                       : 0.103\nStream size                              : 1.33 GiB (79%)\nWriting library                          : x264 core 119 r2106 07efeb4\nEncoding settings                        : rc=2pas\n\nAudio\nID                                       : 2\nFormat                                   : AC-3\nFormat/Info                              : Audio Coding 3\nMode extension                           : CM (complete main)\nCodec ID                                 : ac-3\nDuration                                 : 1h 51mn\nBit rate mode                            : Constant\nBit rate                                 : 448 Kbps\nChannel(s)                               : 6 channels\nChannel positions                        : Front: L C R, Side: L R, LFE\nSampling rate                            : 48.0 KHz\nBit depth                                : 16 bits\nCompression mode                         : Lossy\nStream size                              : 358 MiB (21%)\n\n\nIMDB link :                                &lt;a href=&quot; http://www.imdb.com/title/tt1192628/&quot; rel=&quot;nofollow&quot; target=&quot;_NEW&quot;&gt; http://www.imdb.com/title/tt1192628/&lt;/a&gt;\n\n\nSubtiles included                        : Arabic, Brazilian, Bulgarian, Chinese,                 _________________                          Croatian, Danish, Dutch, English, Farsi,          _________________                          French, German, Hebrew, Indonesian, _________________                          Italian, Korean, Norwegian, Polish, _________________                          Portuguese, Romanian, Serbian, Spanish, _________________                          Swedish, Turkish, Vietnamese\n\n\n\nPlease seed at least 1,5:1 . This way this torrent has a chance to survive !\n\n\nThanks . Enjoy !!\n\n\nSource was:       Rango (2011) Extended 1080p BluRay x264-EbP       Thanks !","torrent":{"xt":"urn:btih:dd4fa6059c67c83a5f036c7e693d112ef542f676","amp;dn":"Rango+%5B2011%5D+Extended+720p+BRRip+H264+AC3+-+CODY","amp;tr":["udp%3A%2F%2Ftracker.openbittorrent.com%3A80","udp%3A%2F%2Fopen.demonii.com%3A1337","udp%3A%2F%2Ftracker.coppersurfer.tk%3A6969","udp%3A%2F%2Fexodus.desync.com%3A6969"],"infoHash":"dd4fa6059c67c83a5f036c7e693d112ef542f676","infoHashBuffer":{"type":"Buffer","data":[221,79,166,5,156,103,200,58,95,3,108,126,105,61,17,46,245,66,246,118]},"announce":[],"urlList":[]}}